<svg xmlns="http://www.w3.org/2000/svg" viewBox="0 0 1160 608" width="1160" height="608"><defs><marker id="ah" viewBox="0 0 10 10" refX="9" refY="5" markerWidth="6.5" markerHeight="6.5" orient="auto-start-reverse"><path d="M0,1 L9,5 L0,9 z" fill="#16202a"/></marker><marker id="ahm" viewBox="0 0 10 10" refX="9" refY="5" markerWidth="6.5" markerHeight="6.5" orient="auto-start-reverse"><path d="M0,1 L9,5 L0,9 z" fill="#5b6b7a"/></marker></defs><rect width="1160" height="608" fill="#ffffff"/><rect x="40" y="50" width="1080" height="116" rx="6" fill="#e3edf7" stroke="#1f4e79" stroke-width="1.6"/><text x="62.0" y="80.0" font-family="Liberation Sans, DejaVu Sans, Arial, sans-serif" font-size="13" fill="#16202a" text-anchor="start" font-weight="700">Client tier</text><text x="62.0" y="98.0" font-family="Liberation Sans, DejaVu Sans, Arial, sans-serif" font-size="10" fill="#5b6b7a" text-anchor="start" font-weight="400">workstations and mobile devices on the LAN</text><g transform="translate(65.00,119.00) scale(0.6250)" fill="none" stroke="#1f4e79" stroke-width="2.3" stroke-linecap="round" stroke-linejoin="round"><rect x="3" y="6" width="30" height="21" rx="2"/><path d="M14 27 v5 M9 32 h10"/><rect x="37" y="6" width="8" height="26" rx="1.5"/><path d="M39.5 10.5 h3 M39.5 14 h3"/><circle cx="41" cy="27" r="1.6"/><path d="M7 11 h14 M7 15 h20"/></g><g transform="translate(117.00,119.00) scale(0.6250)" fill="none" stroke="#1f4e79" stroke-width="2.3" stroke-linecap="round" stroke-linejoin="round"><rect x="9" y="9" width="30" height="20" rx="2"/><path d="M4 34 h40 l-3 -5 H7 z"/><path d="M13 14 h16 M13 19 h11"/></g><g transform="translate(169.00,119.00) scale(0.6250)" fill="none" stroke="#1f4e79" stroke-width="2.3" stroke-linecap="round" stroke-linejoin="round"><rect x="15" y="4" width="18" height="40" rx="3"/><path d="M21 9 h6"/><circle cx="24" cy="39" r="1.8"/><path d="M19 16 h10 M19 21 h7"/></g><rect x="290" y="84" width="87.8" height="30" rx="4" fill="#ffffff" stroke="#1f4e79" stroke-width="1.2"/><text x="333.9" y="103.0" font-family="Liberation Sans, DejaVu Sans, Arial, sans-serif" font-size="11" fill="#16202a" text-anchor="middle" font-weight="500">Web browser</text><rect x="387.78" y="84" width="79.0" height="30" rx="4" fill="#ffffff" stroke="#1f4e79" stroke-width="1.2"/><text x="427.3" y="103.0" font-family="Liberation Sans, DejaVu Sans, Arial, sans-serif" font-size="11" fill="#16202a" text-anchor="middle" font-weight="500">Bootstrap 5</text><rect x="476.76" y="84" width="60.7" height="30" rx="4" fill="#ffffff" stroke="#1f4e79" stroke-width="1.2"/><text x="507.1" y="103.0" font-family="Liberation Sans, DejaVu Sans, Arial, sans-serif" font-size="11" fill="#16202a" text-anchor="middle" font-weight="500">Chart.js</text><rect x="547.48" y="84" width="82.3" height="30" rx="4" fill="#ffffff" stroke="#1f4e79" stroke-width="1.2"/><text x="588.6" y="103.0" font-family="Liberation Sans, DejaVu Sans, Arial, sans-serif" font-size="11" fill="#16202a" text-anchor="middle" font-weight="500">SweetAlert2</text><line x1="520.0" y1="168.0" x2="520.0" y2="185.0" stroke="#16202a" stroke-width="1.5" marker-end="url(#ah)"/><line x1="640.0" y1="185.0" x2="640.0" y2="168.0" stroke="#5b6b7a" stroke-width="1.5" marker-end="url(#ah)"/><rect x="40" y="188" width="1080" height="116" rx="6" fill="#f8ebe6" stroke="#9c3a2a" stroke-width="1.6"/><text x="62.0" y="218.0" font-family="Liberation Sans, DejaVu Sans, Arial, sans-serif" font-size="13" fill="#16202a" text-anchor="start" font-weight="700">Network tier</text><text x="62.0" y="236.0" font-family="Liberation Sans, DejaVu Sans, Arial, sans-serif" font-size="10" fill="#5b6b7a" text-anchor="start" font-weight="400">traffic control at the network boundary</text><g transform="translate(65.00,257.00) scale(0.6250)" fill="none" stroke="#9c3a2a" stroke-width="2.3" stroke-linecap="round" stroke-linejoin="round"><rect x="4" y="17" width="40" height="15" rx="2.5"/><path d="M9 24.5 h3 M15 24.5 h3 M21 24.5 h3 M27 24.5 h3"/><rect x="34" y="21" width="6" height="7" rx="1"/></g><g transform="translate(117.00,257.00) scale(0.6250)" fill="none" stroke="#9c3a2a" stroke-width="2.3" stroke-linecap="round" stroke-linejoin="round"><rect x="5" y="24" width="38" height="13" rx="3"/><path d="M12 30.5 h3 M19 30.5 h3 M26 30.5 h3"/><path d="M14 24 v-9 M24 24 v-13 M34 24 v-9"/><path d="M11 15 h6 M21 11 h6 M31 15 h6"/></g><g transform="translate(169.00,257.00) scale(0.6250)" fill="none" stroke="#9c3a2a" stroke-width="2.3" stroke-linecap="round" stroke-linejoin="round"><rect x="6" y="12" width="36" height="26" rx="2"/><path d="M6 21 h36 M6 30 h36"/><path d="M17 12 v9 M29 12 v9 M11 21 v9 M23 21 v9 M35 21 v9 M17 30 v8 M29 30 v8"/></g><rect x="290" y="222" width="99.7" height="30" rx="4" fill="#ffffff" stroke="#9c3a2a" stroke-width="1.2"/><text x="339.8" y="241.0" font-family="Liberation Sans, DejaVu Sans, Arial, sans-serif" font-size="11" fill="#16202a" text-anchor="middle" font-weight="500">Ethernet switch</text><rect x="399.65999999999997" y="222" width="115.7" height="30" rx="4" fill="#ffffff" stroke="#9c3a2a" stroke-width="1.2"/><text x="457.5" y="241.0" font-family="Liberation Sans, DejaVu Sans, Arial, sans-serif" font-size="11" fill="#16202a" text-anchor="middle" font-weight="500">Router and firewall</text><rect x="525.38" y="222" width="83.2" height="30" rx="4" fill="#ffffff" stroke="#9c3a2a" stroke-width="1.2"/><text x="567.0" y="241.0" font-family="Liberation Sans, DejaVu Sans, Arial, sans-serif" font-size="11" fill="#16202a" text-anchor="middle" font-weight="500">HTTPS / TLS</text><rect x="618.54" y="222" width="104.7" height="30" rx="4" fill="#ffffff" stroke="#9c3a2a" stroke-width="1.2"/><text x="670.9" y="241.0" font-family="Liberation Sans, DejaVu Sans, Arial, sans-serif" font-size="11" fill="#16202a" text-anchor="middle" font-weight="500">No internet route</text><line x1="520.0" y1="306.0" x2="520.0" y2="323.0" stroke="#16202a" stroke-width="1.5" marker-end="url(#ah)"/><line x1="640.0" y1="323.0" x2="640.0" y2="306.0" stroke="#5b6b7a" stroke-width="1.5" marker-end="url(#ah)"/><rect x="40" y="326" width="1080" height="116" rx="6" fill="#e6f0ea" stroke="#2c6049" stroke-width="1.6"/><text x="62.0" y="356.0" font-family="Liberation Sans, DejaVu Sans, Arial, sans-serif" font-size="13" fill="#16202a" text-anchor="start" font-weight="700">Application tier</text><text x="62.0" y="374.0" font-family="Liberation Sans, DejaVu Sans, Arial, sans-serif" font-size="10" fill="#5b6b7a" text-anchor="start" font-weight="400">request handling, workflow and security controls</text><g transform="translate(65.00,395.00) scale(0.6250)" fill="none" stroke="#2c6049" stroke-width="2.3" stroke-linecap="round" stroke-linejoin="round"><rect x="9" y="5" width="30" height="12" rx="2"/><rect x="9" y="19" width="30" height="12" rx="2"/><rect x="9" y="33" width="30" height="10" rx="2"/><path d="M14 11 h8 M14 25 h8 M14 38 h8"/><circle cx="33" cy="11" r="1.7"/><circle cx="33" cy="25" r="1.7"/><circle cx="33" cy="38" r="1.7"/></g><rect x="290" y="360" width="76.3" height="30" rx="4" fill="#ffffff" stroke="#2c6049" stroke-width="1.2"/><text x="328.2" y="379.0" font-family="Liberation Sans, DejaVu Sans, Arial, sans-serif" font-size="11" fill="#16202a" text-anchor="middle" font-weight="500">Apache 2.4</text><rect x="376.34000000000003" y="360" width="60.5" height="30" rx="4" fill="#ffffff" stroke="#2c6049" stroke-width="1.2"/><text x="406.6" y="379.0" font-family="Liberation Sans, DejaVu Sans, Arial, sans-serif" font-size="11" fill="#16202a" text-anchor="middle" font-weight="500">PHP 8.3</text><rect x="446.84000000000003" y="360" width="75.0" height="30" rx="4" fill="#ffffff" stroke="#2c6049" stroke-width="1.2"/><text x="484.4" y="379.0" font-family="Liberation Sans, DejaVu Sans, Arial, sans-serif" font-size="11" fill="#16202a" text-anchor="middle" font-weight="500">Laravel 12</text><rect x="531.86" y="360" width="121.2" height="30" rx="4" fill="#ffffff" stroke="#2c6049" stroke-width="1.2"/><text x="592.5" y="379.0" font-family="Liberation Sans, DejaVu Sans, Arial, sans-serif" font-size="11" fill="#16202a" text-anchor="middle" font-weight="500">Middleware pipeline</text><rect x="663.08" y="360" width="87.1" height="30" rx="4" fill="#ffffff" stroke="#2c6049" stroke-width="1.2"/><text x="706.6" y="379.0" font-family="Liberation Sans, DejaVu Sans, Arial, sans-serif" font-size="11" fill="#16202a" text-anchor="middle" font-weight="500">Service layer</text><rect x="760.2" y="360" width="82.5" height="30" rx="4" fill="#ffffff" stroke="#2c6049" stroke-width="1.2"/><text x="801.5" y="379.0" font-family="Liberation Sans, DejaVu Sans, Arial, sans-serif" font-size="11" fill="#16202a" text-anchor="middle" font-weight="500">REST API v1</text><line x1="520.0" y1="444.0" x2="520.0" y2="461.0" stroke="#16202a" stroke-width="1.5" marker-end="url(#ah)"/><line x1="640.0" y1="461.0" x2="640.0" y2="444.0" stroke="#5b6b7a" stroke-width="1.5" marker-end="url(#ah)"/><rect x="40" y="464" width="1080" height="116" rx="6" fill="#f8f0dd" stroke="#8a6114" stroke-width="1.6"/><text x="62.0" y="494.0" font-family="Liberation Sans, DejaVu Sans, Arial, sans-serif" font-size="13" fill="#16202a" text-anchor="start" font-weight="700">Data tier</text><text x="62.0" y="512.0" font-family="Liberation Sans, DejaVu Sans, Arial, sans-serif" font-size="10" fill="#5b6b7a" text-anchor="start" font-weight="400">employee, leave, audit and intrusion records</text><g transform="translate(65.00,533.00) scale(0.6250)" fill="none" stroke="#8a6114" stroke-width="2.3" stroke-linecap="round" stroke-linejoin="round"><ellipse cx="24" cy="10" rx="15" ry="5.5"/><path d="M9 10 v13 c0 3 6.7 5.5 15 5.5 s15 -2.5 15 -5.5 V10"/><path d="M9 23 v13 c0 3 6.7 5.5 15 5.5 s15 -2.5 15 -5.5 V23"/></g><g transform="translate(117.00,533.00) scale(0.6250)" fill="none" stroke="#8a6114" stroke-width="2.3" stroke-linecap="round" stroke-linejoin="round"><path d="M11 4 h19 l8 8 v32 H11 z"/><path d="M30 4 v8 h8"/><path d="M17 22 h14 M17 28 h14 M17 34 h9"/></g><rect x="290" y="498" width="107.8" height="30" rx="4" fill="#ffffff" stroke="#8a6114" stroke-width="1.2"/><text x="343.9" y="517.0" font-family="Liberation Sans, DejaVu Sans, Arial, sans-serif" font-size="11" fill="#16202a" text-anchor="middle" font-weight="500">MySQL / MariaDB</text><rect x="407.8" y="498" width="110.7" height="30" rx="4" fill="#ffffff" stroke="#8a6114" stroke-width="1.2"/><text x="463.1" y="517.0" font-family="Liberation Sans, DejaVu Sans, Arial, sans-serif" font-size="11" fill="#16202a" text-anchor="middle" font-weight="500">Document storage</text><rect x="528.46" y="498" width="133.1" height="30" rx="4" fill="#ffffff" stroke="#8a6114" stroke-width="1.2"/><text x="595.0" y="517.0" font-family="Liberation Sans, DejaVu Sans, Arial, sans-serif" font-size="11" fill="#16202a" text-anchor="middle" font-weight="500">Append-only audit trail</text><rect x="671.5600000000001" y="498" width="109.3" height="30" rx="4" fill="#ffffff" stroke="#8a6114" stroke-width="1.2"/><text x="726.2" y="517.0" font-family="Liberation Sans, DejaVu Sans, Arial, sans-serif" font-size="11" fill="#16202a" text-anchor="middle" font-weight="500">Scheduled backup</text></svg>